<svg xmlns="http://www.w3.org/2000/svg" style="display: none;"><symbol id="calendar" viewBox="0 0 512 512"><title>calendar</title><path d="m512 169c0-33.41 0-56.783 0-59 0-24.813-20.187-45-45-45h-6v55c0 8.284-6.716 15-15 15s-15-6.716-15-15c0-16.839 0-63.232 0-80 0-8.284-6.716-15-15-15s-15 6.716-15 15v25h-100v55c0 8.284-6.716 15-15 15s-15-6.716-15-15c0-16.839 0-63.232 0-80 0-8.284-6.716-15-15-15s-15 6.716-15 15v25h-100v55c0 8.284-6.716 15-15 15s-15-6.716-15-15c0-16.839 0-63.232 0-80 0-8.284-6.716-15-15-15s-15 6.716-15 15v25h-36c-24.813 0-45 20.187-45 45v59z"/><path d="m0 199v243c0 24.813 20.187 45 45 45h422c24.813 0 45-20.187 45-45 0-6.425 0-146.812 0-243-9.335 0-506.836 0-512 0zm144 208h-32c-8.284 0-15-6.716-15-15s6.716-15 15-15h32c8.284 0 15 6.716 15 15s-6.716 15-15 15zm0-64h-32c-8.284 0-15-6.716-15-15s6.716-15 15-15h32c8.284 0 15 6.716 15 15s-6.716 15-15 15zm0-64h-32c-8.284 0-15-6.716-15-15s6.716-15 15-15h32c8.284 0 15 6.716 15 15s-6.716 15-15 15zm128 128h-32c-8.284 0-15-6.716-15-15s6.716-15 15-15h32c8.284 0 15 6.716 15 15s-6.716 15-15 15zm0-64h-32c-8.284 0-15-6.716-15-15s6.716-15 15-15h32c8.284 0 15 6.716 15 15s-6.716 15-15 15zm0-64h-32c-8.284 0-15-6.716-15-15s6.716-15 15-15h32c8.284 0 15 6.716 15 15s-6.716 15-15 15zm128 128h-32c-8.284 0-15-6.716-15-15s6.716-15 15-15h32c8.284 0 15 6.716 15 15s-6.716 15-15 15zm0-64h-32c-8.284 0-15-6.716-15-15s6.716-15 15-15h32c8.284 0 15 6.716 15 15s-6.716 15-15 15zm0-64h-32c-8.284 0-15-6.716-15-15s6.716-15 15-15h32c8.284 0 15 6.716 15 15s-6.716 15-15 15z"/></symbol><symbol id="right-chevron" viewBox="0 0 256 256"><title>right-chevron</title><polygon points="79.093,0 48.907,30.187 146.72,128 48.907,225.813 79.093,256 207.093,128 "/></symbol><symbol id="plus" viewBox="0 0 426.66667 426.66667"><title>plus</title><path d="m405.332031 192h-170.664062v-170.667969c0-11.773437-9.558594-21.332031-21.335938-21.332031-11.773437 0-21.332031 9.558594-21.332031 21.332031v170.667969h-170.667969c-11.773437 0-21.332031 9.558594-21.332031 21.332031 0 11.777344 9.558594 21.335938 21.332031 21.335938h170.667969v170.664062c0 11.777344 9.558594 21.335938 21.332031 21.335938 11.777344 0 21.335938-9.558594 21.335938-21.335938v-170.664062h170.664062c11.777344 0 21.335938-9.558594 21.335938-21.335938 0-11.773437-9.558594-21.332031-21.335938-21.332031zm0 0"/></symbol><symbol id="descendant" viewBox="0 0 512 512"><title>descendant</title><path d="m496.1,138.3l-120.4-120.4c-7.9-7.9-20.6-7.9-28.5-7.10543e-15l-120.3,120.4c-7.9,7.9-7.9,20.6 0,28.5 7.9,7.9 20.6,7.9 28.5,0l85.7-85.7v352.8c0,11.3 9.1,20.4 20.4,20.4 11.3,0 20.4-9.1 20.4-20.4v-352.8l85.7,85.7c7.9,7.9 20.6,7.9 28.5,0 7.9-7.8 7.9-20.6 5.68434e-14-28.5z"/><path d="m287.1,347.2c-7.9-7.9-20.6-7.9-28.5,0l-85.7,85.7v-352.8c0-11.3-9.1-20.4-20.4-20.4-11.3,0-20.4,9.1-20.4,20.4v352.8l-85.7-85.7c-7.9-7.9-20.6-7.9-28.5,0-7.9,7.9-7.9,20.6 0,28.5l120.4,120.4c7.9,7.9 20.6,7.9 28.5,0l120.4-120.4c7.8-7.9 7.8-20.7-0.1-28.5l0,0z"/></symbol><symbol id="timer" viewBox="0 0 612 612"><title>timer</title><path d="M432.272,68.692l-20.554,35.567l71.221,41.109l20.555-35.568c5.661-9.873,2.29-22.4-7.545-28.104l-35.567-20.555 C450.542,55.443,437.977,58.814,432.272,68.692z"/><path d="M306,92.56c13,0,25.699,1.272,38.25,3.065V62.357l26.297-0.201V19.125C370.547,8.554,361.993,0,351.422,0h-90.643 c-10.571,0-19.125,8.554-19.125,19.125v43.031l26.096,0.201v33.268C280.301,93.832,293,92.56,306,92.56z"/><path d="M306,114.75c-137.312,0-248.625,111.312-248.625,248.625S168.688,612,306,612s248.625-111.312,248.625-248.625 S443.312,114.75,306,114.75z M422.185,480.229L277.312,379.933V238.34h41.808v119.689l126.86,87.827L422.185,480.229z"/></symbol></svg>